<?xml version="1.0" encoding="utf-8"?>
<!-- Generator: Adobe Illustrator 28.0.0, SVG Export Plug-In . SVG Version: 6.00 Build 0)  -->
<svg version="1.1" id="Layer_1" xmlns="http://www.w3.org/2000/svg" xmlns:xlink="http://www.w3.org/1999/xlink" x="0px" y="0px"
	 viewBox="0 0 500 500" style="enable-background:new 0 0 500 500;" xml:space="preserve">
<g>
	<g>
		<path d="M286.71,337.35L286.71,337.35c14.65,5.87,31.29-1.26,37.16-15.91l48.57-121.3c5.87-14.65-1.26-31.29-15.91-37.16l0,0
			c-14.65-5.87-31.29,1.26-37.16,15.91l-48.57,121.3C264.94,314.84,272.06,331.48,286.71,337.35z"/>
	</g>
	<g>
		<path d="M189.71,337.35L189.71,337.35c14.65,5.87,31.29-1.26,37.16-15.91l48.57-121.3c5.87-14.65-1.26-31.29-15.91-37.16l0,0
			c-14.65-5.87-31.29,1.26-37.16,15.91l-48.57,121.3C167.94,314.84,175.06,331.48,189.71,337.35z"/>
	</g>
	<g>
		<g>
			<circle cx="156.17" cy="226.2" r="29"/>
		</g>
		<g>
			<path d="M158.11,197.74c0,0-5.07-13.54,12.32-29.32c1.74-1.58,2.46-3.96,1.15-5.91l0,0c-0.98-1.47-2.75-2.18-4.47-1.81
				c-10.97,2.33-52.15,24.27-39.07,72.51L158.11,197.74z"/>
		</g>
	</g>
</g>
</svg>
