<?xml version="1.0" encoding="utf-8"?>
<!-- Generator: Adobe Illustrator 28.0.0, SVG Export Plug-In . SVG Version: 6.00 Build 0)  -->
<svg version="1.1" id="Layer_1" xmlns="http://www.w3.org/2000/svg" xmlns:xlink="http://www.w3.org/1999/xlink" x="0px" y="0px"
	 viewBox="0 0 500 500" style="enable-background:new 0 0 500 500;" xml:space="preserve">
<style type="text/css">
	.st0{fill:#282828;}
	.st1{fill:#7DACF8;}
	.st2{fill:#DB6F45;}
</style>
<rect class="st0" width="500" height="500"/>
<g>
	<path class="st1" d="M286.71,337.35L286.71,337.35c14.65,5.87,31.29-1.26,37.16-15.91l48.57-121.3
		c5.87-14.65-1.26-31.29-15.91-37.16l0,0c-14.65-5.87-31.29,1.26-37.16,15.91l-48.57,121.3
		C264.94,314.84,272.06,331.48,286.71,337.35z"/>
	<path class="st1" d="M189.71,337.35L189.71,337.35c14.65,5.87,31.29-1.26,37.16-15.91l48.57-121.3
		c5.87-14.65-1.26-31.29-15.91-37.16l0,0c-14.65-5.87-31.29,1.26-37.16,15.91l-48.57,121.3
		C167.94,314.84,175.06,331.48,189.71,337.35z"/>
	<g>
		<circle class="st2" cx="156.17" cy="226.2" r="29"/>
		<path class="st2" d="M158.11,197.74c0,0-5.07-13.54,12.32-29.32c1.74-1.58,2.46-3.96,1.15-5.91l0,0
			c-0.98-1.47-2.75-2.18-4.47-1.81c-10.97,2.33-52.15,24.27-39.07,72.51L158.11,197.74z"/>
	</g>
</g>
</svg>
